HIERARCHY
ROOT Hips
{
	OFFSET -22.570961 87.035881 27.246883
	CHANNELS 6 Xposition Yposition Zposition Zrotation Yrotation Xrotation 
	JOINT Spine
	{
		OFFSET 0.000000 8.814246 -2.080107
		CHANNELS 3 Zrotation Yrotation Xrotation
		JOINT Spine1
		{
			OFFSET 0.000000 8.844141 0.000000
			CHANNELS 3 Zrotation Yrotation Xrotation
			JOINT Spine2
			{
				OFFSET -0.000000 11.682268 0.000000
				CHANNELS 3 Zrotation Yrotation Xrotation
				JOINT Spine3
				{
					OFFSET 0.000000 11.746700 0.000000
					CHANNELS 3 Zrotation Yrotation Xrotation
					JOINT Neck
					{
						OFFSET -0.000000 17.658264 -0.000000
						CHANNELS 3 Zrotation Yrotation Xrotation
						JOINT Neck1
						{
							OFFSET 0.000000 5.101515 0.000000
							CHANNELS 3 Zrotation Yrotation Xrotation
							JOINT Head
							{
								OFFSET 0.000000 5.101515 -0.000000
								CHANNELS 3 Zrotation Yrotation Xrotation
								JOINT HeadEnd
								{
									OFFSET 0.000000 11.655085 0.000000
									CHANNELS 3 Zrotation Yrotation Xrotation
									End Site
									{
										OFFSET 0.000000 0.000000 0.000000
									}
								}
							}
						}
					}
					JOINT RightShoulder
					{
						OFFSET -2.625389 11.175210 -0.000000
						CHANNELS 3 Zrotation Yrotation Xrotation
						JOINT RightArm
						{
							OFFSET -0.000000 10.434715 0.000000
							CHANNELS 3 Zrotation Yrotation Xrotation
							JOINT RightForeArm
							{
								OFFSET -0.000000 29.628420 -0.000000
								CHANNELS 3 Zrotation Yrotation Xrotation
								JOINT RightHand
								{
									OFFSET -0.000000 22.857611 0.000000
									CHANNELS 3 Zrotation Yrotation Xrotation
									JOINT RightHandThumb1
									{
										OFFSET -2.867323 3.959563 2.944291
										CHANNELS 3 Zrotation Yrotation Xrotation
										JOINT RightHandThumb2
										{
											OFFSET -0.000000 3.350399 0.000000
											CHANNELS 3 Zrotation Yrotation Xrotation
											JOINT RightHandThumb3
											{
												OFFSET 0.000000 3.756509 0.000000
												CHANNELS 3 Zrotation Yrotation Xrotation
												JOINT RightHandThumb4
												{
													OFFSET 0.000000 3.147345 0.000000
													CHANNELS 3 Zrotation Yrotation Xrotation
													End Site
													{
														OFFSET 0.000000 0.000000 0.000000
													}
												}
											}
										}
									}
									JOINT RightHandIndex1
									{
										OFFSET -0.086752 10.030893 2.345280
										CHANNELS 3 Zrotation Yrotation Xrotation
										JOINT RightHandIndex2
										{
											OFFSET -0.000000 4.061090 -0.000000
											CHANNELS 3 Zrotation Yrotation Xrotation
											JOINT RightHandIndex3
											{
												OFFSET 0.000000 3.248873 0.000000
												CHANNELS 3 Zrotation Yrotation Xrotation
												JOINT RightHandIndex4
												{
													OFFSET -0.000000 2.639709 -0.000000
													CHANNELS 3 Zrotation Yrotation Xrotation
													End Site
													{
														OFFSET 0.000000 0.000000 0.000000
													}
												}
											}
										}
									}
									JOINT RightHandMiddle1
									{
										OFFSET 0.104102 9.502952 0.006768
										CHANNELS 3 Zrotation Yrotation Xrotation
										JOINT RightHandMiddle2
										{
											OFFSET -0.000000 4.568727 0.000000
											CHANNELS 3 Zrotation Yrotation Xrotation
											JOINT RightHandMiddle3
											{
												OFFSET 0.000000 3.654981 0.000000
												CHANNELS 3 Zrotation Yrotation Xrotation
												JOINT RightHandMiddle4
												{
													OFFSET 0.000000 2.741236 0.000000
													CHANNELS 3 Zrotation Yrotation Xrotation
													End Site
													{
														OFFSET 0.000000 0.000000 0.000000
													}
												}
											}
										}
									}
									JOINT RightHandRing1
									{
										OFFSET 0.086752 8.921708 -2.267442
										CHANNELS 3 Zrotation Yrotation Xrotation
										JOINT RightHandRing2
										{
											OFFSET 0.000000 4.061090 0.000000
											CHANNELS 3 Zrotation Yrotation Xrotation
											JOINT RightHandRing3
											{
												OFFSET -0.000000 3.654981 -0.000000
												CHANNELS 3 Zrotation Yrotation Xrotation
												JOINT RightHandRing4
												{
													OFFSET -0.000000 2.741236 0.000000
													CHANNELS 3 Zrotation Yrotation Xrotation
													End Site
													{
														OFFSET 0.000000 0.000000 0.000000
													}
												}
											}
										}
									}
									JOINT RightHandPinky1
									{
										OFFSET -0.173504 7.976997 -4.467199
										CHANNELS 3 Zrotation Yrotation Xrotation
										JOINT RightHandPinky2
										{
											OFFSET 0.000000 3.350399 0.000000
											CHANNELS 3 Zrotation Yrotation Xrotation
											JOINT RightHandPinky3
											{
												OFFSET -0.000000 2.842763 -0.000000
												CHANNELS 3 Zrotation Yrotation Xrotation
												JOINT RightHandPinky4
												{
													OFFSET -0.000000 2.639709 -0.000000
													CHANNELS 3 Zrotation Yrotation Xrotation
													End Site
													{
														OFFSET 0.000000 0.000000 0.000000
													}
												}
											}
										}
									}
									JOINT RightForeArmEnd
									{
										OFFSET 0.000000 0.000000 0.000000
										CHANNELS 3 Zrotation Yrotation Xrotation
										End Site
										{
											OFFSET 0.000000 0.000000 0.000000
										}
									}
								}
								JOINT RightArmEnd
								{
									OFFSET 0.000000 0.000000 0.000000
									CHANNELS 3 Zrotation Yrotation Xrotation
									End Site
									{
										OFFSET 0.000000 0.000000 0.000000
									}
								}
							}
						}
					}
					JOINT LeftShoulder
					{
						OFFSET 2.625389 11.175210 0.000000
						CHANNELS 3 Zrotation Yrotation Xrotation
						JOINT LeftArm
						{
							OFFSET 0.000000 10.813635 0.000000
							CHANNELS 3 Zrotation Yrotation Xrotation
							JOINT LeftForeArm
							{
								OFFSET 0.000000 28.724781 -0.000000
								CHANNELS 3 Zrotation Yrotation Xrotation
								JOINT LeftHand
								{
									OFFSET 0.644384 25.716167 -0.328871
									CHANNELS 3 Zrotation Yrotation Xrotation
									JOINT LeftHandThumb1
									{
										OFFSET 2.867323 3.959563 2.944291
										CHANNELS 3 Zrotation Yrotation Xrotation
										JOINT LeftHandThumb2
										{
											OFFSET -0.000000 3.350399 0.000000
											CHANNELS 3 Zrotation Yrotation Xrotation
											JOINT LeftHandThumb3
											{
												OFFSET 0.000000 3.756509 -0.000000
												CHANNELS 3 Zrotation Yrotation Xrotation
												JOINT LeftHandThumb4
												{
													OFFSET -0.000000 3.100000 0.000000
													CHANNELS 3 Zrotation Yrotation Xrotation
													End Site
													{
														OFFSET 0.000000 0.000000 0.000000
													}
												}
											}
										}
									}
									JOINT LeftHandIndex1
									{
										OFFSET 0.086752 10.030893 2.345280
										CHANNELS 3 Zrotation Yrotation Xrotation
										JOINT LeftHandIndex2
										{
											OFFSET -0.000000 4.061090 0.000000
											CHANNELS 3 Zrotation Yrotation Xrotation
											JOINT LeftHandIndex3
											{
												OFFSET 0.000000 3.248873 -0.000000
												CHANNELS 3 Zrotation Yrotation Xrotation
												JOINT LeftHandIndex4
												{
													OFFSET -0.000000 2.639709 0.000000
													CHANNELS 3 Zrotation Yrotation Xrotation
													End Site
													{
														OFFSET 0.000000 0.000000 0.000000
													}
												}
											}
										}
									}
									JOINT LeftHandMiddle1
									{
										OFFSET -0.104102 9.502952 0.006768
										CHANNELS 3 Zrotation Yrotation Xrotation
										JOINT LeftHandMiddle2
										{
											OFFSET -0.000000 4.568727 0.000000
											CHANNELS 3 Zrotation Yrotation Xrotation
											JOINT LeftHandMiddle3
											{
												OFFSET 0.000000 3.654981 -0.000000
												CHANNELS 3 Zrotation Yrotation Xrotation
												JOINT LeftHandMiddle4
												{
													OFFSET -0.000000 2.741236 0.000000
													CHANNELS 3 Zrotation Yrotation Xrotation
													End Site
													{
														OFFSET 0.000000 0.000000 0.000000
													}
												}
											}
										}
									}
									JOINT LeftHandRing1
									{
										OFFSET -0.086752 8.921708 -2.267442
										CHANNELS 3 Zrotation Yrotation Xrotation
										JOINT LeftHandRing2
										{
											OFFSET -0.000000 4.061090 0.000000
											CHANNELS 3 Zrotation Yrotation Xrotation
											JOINT LeftHandRing3
											{
												OFFSET -0.000000 3.654981 0.000000
												CHANNELS 3 Zrotation Yrotation Xrotation
												JOINT LeftHandRing4
												{
													OFFSET 0.000000 2.741236 -0.000000
													CHANNELS 3 Zrotation Yrotation Xrotation
													End Site
													{
														OFFSET 0.000000 0.000000 0.000000
													}
												}
											}
										}
									}
									JOINT LeftHandPinky1
									{
										OFFSET 0.173504 7.976997 -4.467199
										CHANNELS 3 Zrotation Yrotation Xrotation
										JOINT LeftHandPinky2
										{
											OFFSET 0.000000 3.350399 -0.000000
											CHANNELS 3 Zrotation Yrotation Xrotation
											JOINT LeftHandPinky3
											{
												OFFSET 0.000000 2.842763 -0.000000
												CHANNELS 3 Zrotation Yrotation Xrotation
												JOINT LeftHandPinky4
												{
													OFFSET -0.000000 2.639709 0.000000
													CHANNELS 3 Zrotation Yrotation Xrotation
													End Site
													{
														OFFSET 0.000000 0.000000 0.000000
													}
												}
											}
										}
									}
									JOINT LeftForeArmEnd
									{
										OFFSET 0.000000 0.000000 0.000000
										CHANNELS 3 Zrotation Yrotation Xrotation
										End Site
										{
											OFFSET 0.000000 0.000000 0.000000
										}
									}
								}
								JOINT LeftArmEnd
								{
									OFFSET 0.000000 0.000000 0.000000
									CHANNELS 3 Zrotation Yrotation Xrotation
									End Site
									{
										OFFSET 0.000000 0.000000 0.000000
									}
								}
							}
						}
					}
				}
			}
		}
	}
	JOINT RightUpLeg
	{
		OFFSET -11.289943 -0.000000 0.000000
		CHANNELS 3 Zrotation Yrotation Xrotation
		JOINT RightLeg
		{
			OFFSET 0.000000 -38.200325 -0.000000
			CHANNELS 3 Zrotation Yrotation Xrotation
			JOINT RightFoot
			{
				OFFSET -0.000000 -39.900856 -0.000000
				CHANNELS 3 Zrotation Yrotation Xrotation
				JOINT RightToeBase
				{
					OFFSET -0.000000 -0.000000 15.261641
					CHANNELS 3 Zrotation Yrotation Xrotation
					JOINT RightToeBaseEnd
					{
						OFFSET 0.000000 0.000000 7.370709
						CHANNELS 3 Zrotation Yrotation Xrotation
						End Site
						{
							OFFSET 0.000000 0.000000 0.000000
						}
					}
				}
				JOINT RightLegEnd
				{
					OFFSET 0.000000 0.000000 0.000000
					CHANNELS 3 Zrotation Yrotation Xrotation
					End Site
					{
						OFFSET 0.000000 0.000000 0.000000
					}
				}
			}
			JOINT RightUpLegEnd
			{
				OFFSET 0.000000 0.000000 0.000000
				CHANNELS 3 Zrotation Yrotation Xrotation
				End Site
				{
					OFFSET 0.000000 0.000000 0.000000
				}
			}
		}
	}
	JOINT LeftUpLeg
	{
		OFFSET 11.315661 -0.000000 0.000000
		CHANNELS 3 Zrotation Yrotation Xrotation
		JOINT LeftLeg
		{
			OFFSET 0.000000 -38.200325 -0.000000
			CHANNELS 3 Zrotation Yrotation Xrotation
			JOINT LeftFoot
			{
				OFFSET 0.000000 -39.900856 -0.000000
				CHANNELS 3 Zrotation Yrotation Xrotation
				JOINT LeftToeBase
				{
					OFFSET 0.000000 -0.000000 15.261641
					CHANNELS 3 Zrotation Yrotation Xrotation
					JOINT LeftToeBaseEnd
					{
						OFFSET 0.000000 -0.000000 7.539996
						CHANNELS 3 Zrotation Yrotation Xrotation
						End Site
						{
							OFFSET 0.000000 0.000000 0.000000
						}
					}
				}
				JOINT LeftLegEnd
				{
					OFFSET 0.000000 0.000000 0.000000
					CHANNELS 3 Zrotation Yrotation Xrotation
					End Site
					{
						OFFSET 0.000000 0.000000 0.000000
					}
				}
			}
			JOINT LeftUpLegEnd
			{
				OFFSET 0.000000 0.000000 0.000000
				CHANNELS 3 Zrotation Yrotation Xrotation
				End Site
				{
					OFFSET 0.000000 0.000000 0.000000
				}
			}
		}
	}
}
MOTION
Frames: 5
Frame Time: 0.016667
-17.127058 86.179375 -2.268874 -3.723572 -25.687164 -11.029014 4.915167 -1.361291 5.917156 6.852099 -2.117535 4.952978 1.411667 -3.338014 6.469191 -0.767410 -1.104779 0.726429 2.339275 9.759617 14.628897 -3.342229 6.950384 -4.817892 -2.447809 2.753743 -20.971891 -0.000000 0.000000 0.000000 94.020638 -0.357127 4.854110 61.714378 -42.780125 -7.790509 4.373776 28.732864 39.326828 0.629059 27.710876 -9.782562 13.335325 -2.014824 38.706818 -0.000000 -0.000000 -32.400002 0.000000 -0.000000 -22.500000 0.000000 0.000000 0.000000 27.946720 -0.000000 -9.703145 19.562704 -0.000000 0.000000 19.562704 -0.000000 0.000000 0.000000 -0.000000 -0.000000 30.233027 0.000000 -11.373843 21.163118 -0.000000 -0.000000 21.163118 -0.000000 -0.000000 0.000000 -0.000000 -0.000000 37.761166 -0.000000 -9.370398 26.432817 -0.000000 0.000000 26.432817 -0.000000 -0.000000 0.000000 0.000000 0.000000 44.263439 -0.000000 -6.259129 30.984407 0.000000 -0.000000 30.984407 -0.000000 0.000000 0.000000 -0.000000 -0.000000 0.000000 0.000000 -0.000000 0.000000 -0.000000 0.000000 -91.856522 0.152575 3.352366 -42.172596 -7.691719 8.245491 -2.073738 -19.169167 115.910027 11.997142 -19.562363 18.256428 -12.735312 1.985468 38.960350 0.000000 0.000000 -30.959999 -0.000000 -0.000000 -21.500000 0.000000 -0.000000 0.000000 -30.512152 0.000000 -10.655725 -21.358507 -0.000000 -0.000000 -21.358507 -0.000000 0.000000 0.000000 -0.000000 0.000000 -37.117901 0.000000 -11.621460 -25.982531 0.000000 0.000000 -25.982531 0.000000 0.000000 0.000000 0.000000 0.000000 -55.812557 0.000000 -8.039483 -39.068790 0.000000 0.000000 -39.068790 -0.000000 0.000000 0.000000 0.000000 0.000000 -71.471107 0.000000 -5.759404 -50.029778 0.000000 -0.000000 -50.029778 -0.000000 -0.000000 -0.000000 -0.000000 -0.000000 -0.000000 -0.000000 -0.000000 0.000000 -0.000000 0.000000 10.629113 -4.039303 15.084919 -0.016128 -0.179374 6.044774 -13.979211 -7.892632 18.102337 0.298715 -1.369773 -31.247423 0.000000 0.000000 0.000000 -0.000000 0.000000 0.000000 0.000000 0.000000 0.000000 18.839821 7.683088 0.963275 0.529312 1.226647 23.341196 -1.660500 8.301550 20.866467 0.573645 1.398940 -30.635834 -0.000000 -0.000000 -0.000000 -0.000000 0.000000 -0.000000 -0.000000 -0.000000 -0.000000 
-17.158194 86.179596 -2.286439 -3.711806 -25.796352 -11.039770 4.973713 -1.384778 5.956858 6.839407 -2.133616 5.000672 1.423060 -3.310742 6.351457 -0.770609 -1.088935 0.715915 2.192544 9.833915 14.637051 -3.313004 7.014325 -4.783932 -2.429733 2.792372 -21.006334 0.000000 0.000000 0.000000 93.914124 -0.350234 4.888915 61.883755 -42.804825 -7.812002 4.256432 28.754902 39.320786 0.696625 27.681641 -9.792511 13.335325 -2.014824 38.706818 0.000000 -0.000000 -32.400002 -0.000000 0.000000 -22.500000 -0.000000 0.000000 0.000000 27.995548 -0.000000 -9.769085 19.596884 0.000000 -0.000000 19.596884 -0.000000 0.000000 0.000000 -0.000000 0.000000 30.293432 -0.000000 -11.426993 21.205402 0.000000 -0.000000 21.205402 -0.000000 -0.000000 0.000000 -0.000000 0.000000 37.872627 -0.000000 -9.379249 26.510839 0.000000 -0.000000 26.510839 -0.000000 0.000000 0.000000 -0.000000 -0.000000 44.432930 -0.000000 -6.209552 31.103050 -0.000000 0.000000 31.103050 -0.000000 -0.000000 0.000000 0.000000 0.000000 0.000000 0.000000 -0.000000 -0.000000 -0.000000 0.000000 -91.752693 0.145798 3.385704 -41.214371 -9.636815 8.139574 0.724590 -19.960468 116.042358 14.034508 -22.195152 18.194038 -12.735312 1.985468 38.960350 -0.000000 -0.000000 -30.959999 0.000000 0.000000 -21.500000 -0.000000 -0.000000 0.000000 -29.571613 -0.000000 -10.930716 -20.700129 0.000000 -0.000000 -20.700129 0.000000 0.000000 0.000000 -0.000000 0.000000 -36.430901 -0.000000 -11.849258 -25.501629 -0.000000 -0.000000 -25.501629 -0.000000 -0.000000 0.000000 0.000000 -0.000000 -55.988827 -0.000000 -7.893077 -39.192177 -0.000000 -0.000000 -39.192177 -0.000000 -0.000000 0.000000 0.000000 -0.000000 -72.326836 -0.000000 -5.395014 -50.628784 0.000000 0.000000 -50.628784 -0.000000 -0.000000 0.000000 -0.000000 -0.000000 0.000000 -0.000000 -0.000000 0.000000 -0.000000 0.000000 10.642737 -4.004210 15.098088 -0.015365 -0.178337 6.035814 -14.011269 -7.819590 18.106831 0.297013 -1.370903 -31.273539 0.000000 0.000000 0.000000 0.000000 -0.000000 -0.000000 0.000000 0.000000 0.000000 18.841127 7.559692 0.976899 0.535180 1.237538 23.388685 -1.615242 8.388647 20.891825 0.571908 1.404393 -30.610409 0.000000 -0.000000 -0.000000 -0.000000 0.000000 -0.000000 -0.000000 -0.000000 0.000000 
-17.158194 86.179596 -2.286439 -3.711806 -25.796352 -11.039770 4.973713 -1.384778 5.956858 6.839407 -2.133616 5.000672 1.423060 -3.310742 6.351457 -0.770609 -1.088935 0.715915 2.192544 9.833915 14.637051 -3.313004 7.014325 -4.783932 -2.429733 2.792372 -21.006334 0.000000 0.000000 0.000000 93.914124 -0.350234 4.888915 61.883755 -42.804825 -7.812002 4.256432 28.754902 39.320786 0.696625 27.681641 -9.792511 13.335325 -2.014824 38.706818 0.000000 -0.000000 -32.400002 -0.000000 0.000000 -22.500000 -0.000000 0.000000 0.000000 27.995548 -0.000000 -9.769085 19.596884 0.000000 -0.000000 19.596884 -0.000000 0.000000 0.000000 -0.000000 0.000000 30.293432 -0.000000 -11.426993 21.205402 0.000000 -0.000000 21.205402 -0.000000 -0.000000 0.000000 -0.000000 0.000000 37.872627 -0.000000 -9.379249 26.510839 0.000000 -0.000000 26.510839 -0.000000 0.000000 0.000000 -0.000000 -0.000000 44.432930 -0.000000 -6.209552 31.103050 -0.000000 0.000000 31.103050 -0.000000 -0.000000 0.000000 0.000000 0.000000 0.000000 0.000000 -0.000000 -0.000000 -0.000000 0.000000 -91.752693 0.145798 3.385704 -41.214371 -9.636815 8.139574 0.724590 -19.960468 116.042358 14.034508 -22.195152 18.194038 -12.735312 1.985468 38.960350 -0.000000 -0.000000 -30.959999 0.000000 0.000000 -21.500000 -0.000000 -0.000000 0.000000 -29.571613 -0.000000 -10.930716 -20.700129 0.000000 -0.000000 -20.700129 0.000000 0.000000 0.000000 -0.000000 0.000000 -36.430901 -0.000000 -11.849258 -25.501629 -0.000000 -0.000000 -25.501629 -0.000000 -0.000000 0.000000 0.000000 -0.000000 -55.988827 -0.000000 -7.893077 -39.192177 -0.000000 -0.000000 -39.192177 -0.000000 -0.000000 0.000000 0.000000 -0.000000 -72.326836 -0.000000 -5.395014 -50.628784 0.000000 0.000000 -50.628784 -0.000000 -0.000000 0.000000 -0.000000 -0.000000 0.000000 -0.000000 -0.000000 0.000000 -0.000000 0.000000 10.642737 -4.004210 15.098088 -0.015365 -0.178337 6.035814 -14.011269 -7.819590 18.106831 0.297013 -1.370903 -31.273539 0.000000 0.000000 0.000000 0.000000 -0.000000 -0.000000 0.000000 0.000000 0.000000 18.841127 7.559692 0.976899 0.535180 1.237538 23.388685 -1.615242 8.388647 20.891825 0.571908 1.404393 -30.610409 0.000000 -0.000000 -0.000000 -0.000000 0.000000 -0.000000 -0.000000 -0.000000 0.000000 
-17.158194 86.179596 -2.286439 -3.711806 -25.796352 -11.039770 4.973713 -1.384778 5.956858 6.839407 -2.133616 5.000672 1.423060 -3.310742 6.351457 -0.770609 -1.088935 0.715915 2.192544 9.833915 14.637051 -3.313004 7.014325 -4.783932 -2.429733 2.792372 -21.006334 0.000000 0.000000 0.000000 93.914124 -0.350234 4.888915 61.883755 -42.804825 -7.812002 4.256432 28.754902 39.320786 0.696625 27.681641 -9.792511 13.335325 -2.014824 38.706818 0.000000 -0.000000 -32.400002 -0.000000 0.000000 -22.500000 -0.000000 0.000000 0.000000 27.995548 -0.000000 -9.769085 19.596884 0.000000 -0.000000 19.596884 -0.000000 0.000000 0.000000 -0.000000 0.000000 30.293432 -0.000000 -11.426993 21.205402 0.000000 -0.000000 21.205402 -0.000000 -0.000000 0.000000 -0.000000 0.000000 37.872627 -0.000000 -9.379249 26.510839 0.000000 -0.000000 26.510839 -0.000000 0.000000 0.000000 -0.000000 -0.000000 44.432930 -0.000000 -6.209552 31.103050 -0.000000 0.000000 31.103050 -0.000000 -0.000000 0.000000 0.000000 0.000000 0.000000 0.000000 -0.000000 -0.000000 -0.000000 0.000000 -91.752693 0.145798 3.385704 -41.214371 -9.636815 8.139574 0.724590 -19.960468 116.042358 14.034508 -22.195152 18.194038 -12.735312 1.985468 38.960350 -0.000000 -0.000000 -30.959999 0.000000 0.000000 -21.500000 -0.000000 -0.000000 0.000000 -29.571613 -0.000000 -10.930716 -20.700129 0.000000 -0.000000 -20.700129 0.000000 0.000000 0.000000 -0.000000 0.000000 -36.430901 -0.000000 -11.849258 -25.501629 -0.000000 -0.000000 -25.501629 -0.000000 -0.000000 0.000000 0.000000 -0.000000 -55.988827 -0.000000 -7.893077 -39.192177 -0.000000 -0.000000 -39.192177 -0.000000 -0.000000 0.000000 0.000000 -0.000000 -72.326836 -0.000000 -5.395014 -50.628784 0.000000 0.000000 -50.628784 -0.000000 -0.000000 0.000000 -0.000000 -0.000000 0.000000 -0.000000 -0.000000 0.000000 -0.000000 0.000000 10.642737 -4.004210 15.098088 -0.015365 -0.178337 6.035814 -14.011269 -7.819590 18.106831 0.297013 -1.370903 -31.273539 0.000000 0.000000 0.000000 0.000000 -0.000000 -0.000000 0.000000 0.000000 0.000000 18.841127 7.559692 0.976899 0.535180 1.237538 23.388685 -1.615242 8.388647 20.891825 0.571908 1.404393 -30.610409 0.000000 -0.000000 -0.000000 -0.000000 0.000000 -0.000000 -0.000000 -0.000000 0.000000 
-17.158194 86.179596 -2.286439 -3.711806 -25.796352 -11.039770 4.973713 -1.384778 5.956858 6.839407 -2.133616 5.000672 1.423060 -3.310742 6.351457 -0.770609 -1.088935 0.715915 2.192544 9.833915 14.637051 -3.313004 7.014325 -4.783932 -2.429733 2.792372 -21.006334 0.000000 0.000000 0.000000 93.914124 -0.350234 4.888915 61.883755 -42.804825 -7.812002 4.256432 28.754902 39.320786 0.696625 27.681641 -9.792511 13.335325 -2.014824 38.706818 0.000000 -0.000000 -32.400002 -0.000000 0.000000 -22.500000 -0.000000 0.000000 0.000000 27.995548 -0.000000 -9.769085 19.596884 0.000000 -0.000000 19.596884 -0.000000 0.000000 0.000000 -0.000000 0.000000 30.293432 -0.000000 -11.426993 21.205402 0.000000 -0.000000 21.205402 -0.000000 -0.000000 0.000000 -0.000000 0.000000 37.872627 -0.000000 -9.379249 26.510839 0.000000 -0.000000 26.510839 -0.000000 0.000000 0.000000 -0.000000 -0.000000 44.432930 -0.000000 -6.209552 31.103050 -0.000000 0.000000 31.103050 -0.000000 -0.000000 0.000000 0.000000 0.000000 0.000000 0.000000 -0.000000 -0.000000 -0.000000 0.000000 -91.752693 0.145798 3.385704 -41.214371 -9.636815 8.139574 0.724590 -19.960468 116.042358 14.034508 -22.195152 18.194038 -12.735312 1.985468 38.960350 -0.000000 -0.000000 -30.959999 0.000000 0.000000 -21.500000 -0.000000 -0.000000 0.000000 -29.571613 -0.000000 -10.930716 -20.700129 0.000000 -0.000000 -20.700129 0.000000 0.000000 0.000000 -0.000000 0.000000 -36.430901 -0.000000 -11.849258 -25.501629 -0.000000 -0.000000 -25.501629 -0.000000 -0.000000 0.000000 0.000000 -0.000000 -55.988827 -0.000000 -7.893077 -39.192177 -0.000000 -0.000000 -39.192177 -0.000000 -0.000000 0.000000 0.000000 -0.000000 -72.326836 -0.000000 -5.395014 -50.628784 0.000000 0.000000 -50.628784 -0.000000 -0.000000 0.000000 -0.000000 -0.000000 0.000000 -0.000000 -0.000000 0.000000 -0.000000 0.000000 10.642737 -4.004210 15.098088 -0.015365 -0.178337 6.035814 -14.011269 -7.819590 18.106831 0.297013 -1.370903 -31.273539 0.000000 0.000000 0.000000 0.000000 -0.000000 -0.000000 0.000000 0.000000 0.000000 18.841127 7.559692 0.976899 0.535180 1.237538 23.388685 -1.615242 8.388647 20.891825 0.571908 1.404393 -30.610409 0.000000 -0.000000 -0.000000 -0.000000 0.000000 -0.000000 -0.000000 -0.000000 0.000000 
